<svg width="130" height="38" viewBox="0 0 130 38" fill="none" xmlns="http://www.w3.org/2000/svg">
<path d="M129.278 33.2246C129.278 35.2259 127.623 36.8471 125.576 36.8471H4.42892C2.38292 36.8471 0.722168 35.2259 0.722168 33.2246V4.33601C0.722168 2.33557 2.38292 0.70874 4.42892 0.70874H125.575C127.623 0.70874 129.277 2.33557 129.277 4.33601L129.278 33.2246Z" fill="black"/>
<path d="M125.185 0.752395C127.414 0.752395 129.228 2.52103 129.228 4.69455V32.8612C129.228 35.0347 127.414 36.8034 125.185 36.8034H4.81481C2.58556 36.8034 0.771574 35.0347 0.771574 32.8612V4.69455C0.771574 2.52103 2.58556 0.752395 4.81481 0.752395H125.185ZM125.185 0.000111017H4.81481C2.16787 0.000111017 0 2.11378 0 4.69455V32.8612C0 35.442 2.16787 37.5557 4.81481 37.5557H125.185C127.832 37.5557 130 35.442 130 32.8612V4.69455C130 2.11378 127.832 0.000111017 125.185 0.000111017Z" fill="#A6A6A6"/>
<path d="M29.0121 18.5751C28.9842 15.549 31.5534 14.0768 31.6709 14.0083C30.2158 11.9399 27.9606 11.6573 27.1681 11.6348C25.2739 11.4404 23.4366 12.7399 22.4717 12.7399C21.4875 12.7399 20.0017 11.6536 18.4003 11.6855C16.3395 11.7165 14.4117 12.8798 13.3544 14.6862C11.1723 18.3694 12.7997 23.7821 14.8903 26.7594C15.9361 28.2174 17.1581 29.8455 18.7575 29.7882C20.3224 29.7253 20.9069 28.8155 22.7952 28.8155C24.6663 28.8155 25.2152 29.7882 26.8464 29.7516C28.5258 29.7253 29.5832 28.2869 30.5924 26.8157C31.8009 25.1445 32.2862 23.4986 32.3055 23.4141C32.266 23.401 29.0439 22.202 29.0121 18.5751Z" fill="white"/>
<path d="M25.9307 9.67627C26.7723 8.65007 27.3481 7.25394 27.1883 5.83716C25.9701 5.88974 24.4467 6.65869 23.5695 7.66236C22.7933 8.54679 22.1 9.99644 22.2791 11.3597C23.6475 11.4592 25.0524 10.6865 25.9307 9.67627Z" fill="white"/>
<path d="M51.6582 29.579H49.4714L48.2734 25.9088H44.1096L42.9685 29.579H40.8394L44.9647 17.0842H47.5127L51.6582 29.579ZM47.9123 24.3691L46.829 21.1064C46.7144 20.7731 46.4996 19.9882 46.1828 18.7526H46.1443C46.0182 19.284 45.815 20.069 45.5357 21.1064L44.4716 24.3691H47.9123Z" fill="white"/>
<path d="M62.2671 24.9635C62.2671 26.4957 61.8425 27.7069 60.9931 28.596C60.2324 29.3875 59.2877 29.7828 58.1601 29.7828C56.9429 29.7828 56.0686 29.3565 55.536 28.504H55.4975V33.2501H53.4445V23.5354C53.4445 22.5721 53.4185 21.5835 53.3684 20.5695H55.174L55.2886 21.9975H55.3271C56.0117 20.9216 57.0508 20.3845 58.4451 20.3845C59.5352 20.3845 60.4452 20.8042 61.1732 21.6445C61.9031 22.4858 62.2671 23.5918 62.2671 24.9635ZM60.1756 25.0367C60.1756 24.1598 59.9734 23.4368 59.567 22.8679C59.1231 22.2745 58.527 21.9778 57.7797 21.9778C57.2732 21.9778 56.8129 22.1431 56.4017 22.4689C55.9896 22.7975 55.72 23.2265 55.5938 23.7579C55.5303 24.0058 55.4985 24.2086 55.4985 24.3682V25.8704C55.4985 26.5258 55.7046 27.0788 56.1167 27.5304C56.5289 27.982 57.0643 28.2073 57.7229 28.2073C58.4962 28.2073 59.098 27.9163 59.5285 27.3361C59.9599 26.7549 60.1756 25.9887 60.1756 25.0367Z" fill="white"/>
<path d="M72.8953 24.9635C72.8953 26.4957 72.4707 27.7069 71.6204 28.596C70.8606 29.3875 69.9159 29.7828 68.7883 29.7828C67.5711 29.7828 66.6967 29.3565 66.1652 28.504H66.1267V33.2501H64.0736V23.5354C64.0736 22.5721 64.0476 21.5835 63.9976 20.5695H65.8031L65.9177 21.9975H65.9562C66.6399 20.9216 67.679 20.3845 69.0743 20.3845C70.1634 20.3845 71.0734 20.8042 71.8033 21.6445C72.5304 22.4858 72.8953 23.5918 72.8953 24.9635ZM70.8038 25.0367C70.8038 24.1598 70.6006 23.4368 70.1942 22.8679C69.7503 22.2745 69.1562 21.9778 68.4079 21.9778C67.9004 21.9778 67.4411 22.1431 67.029 22.4689C66.6168 22.7975 66.3481 23.2265 66.222 23.7579C66.1594 24.0058 66.1267 24.2086 66.1267 24.3682V25.8704C66.1267 26.5258 66.3327 27.0788 66.743 27.5304C67.1551 27.9811 67.6905 28.2073 68.3511 28.2073C69.1244 28.2073 69.7262 27.9163 70.1567 27.3361C70.5881 26.7549 70.8038 25.9887 70.8038 25.0367Z" fill="white"/>
<path d="M84.7783 26.0751C84.7783 27.138 84.3999 28.0027 83.6401 28.6702C82.8052 29.3997 81.6429 29.764 80.1494 29.764C78.7704 29.764 77.6649 29.5049 76.8281 28.9857L77.3038 27.3173C78.2052 27.8487 79.1941 28.1153 80.2717 28.1153C81.0449 28.1153 81.6468 27.9445 82.0792 27.6046C82.5096 27.2647 82.7243 26.8084 82.7243 26.2394C82.7243 25.7324 82.5472 25.3052 82.1918 24.9588C81.8384 24.6123 81.2481 24.2903 80.4238 23.9927C78.1801 23.1768 77.0592 21.9816 77.0592 20.4099C77.0592 19.3827 77.4521 18.5405 78.2389 17.8852C79.0227 17.2289 80.0685 16.9012 81.3762 16.9012C82.5423 16.9012 83.5111 17.0994 84.2843 17.4946L83.7711 19.1264C83.0489 18.7433 82.2323 18.5518 81.3184 18.5518C80.5962 18.5518 80.0319 18.7255 79.6275 19.071C79.2856 19.3799 79.1142 19.7564 79.1142 20.2024C79.1142 20.6962 79.3097 21.1047 79.7026 21.4258C80.0444 21.7224 80.6655 22.0435 81.5669 22.39C82.6695 22.8228 83.4793 23.3289 84.0003 23.9091C84.5193 24.4875 84.7783 25.2114 84.7783 26.0751Z" fill="white"/>
<path d="M91.5663 22.0716H89.3033V26.4459C89.3033 27.5584 89.702 28.1143 90.5012 28.1143C90.8681 28.1143 91.1724 28.0833 91.4132 28.0213L91.47 29.5414C91.0655 29.6888 90.533 29.7629 89.8734 29.7629C89.0626 29.7629 88.4289 29.5217 87.9715 29.04C87.5161 28.5574 87.2869 27.7481 87.2869 26.6111V22.0697H85.9387V20.5675H87.2869V18.9178L89.3033 18.3245V20.5675H91.5663V22.0716Z" fill="white"/>
<path d="M101.777 25C101.777 26.3849 101.37 27.5219 100.56 28.411C99.7092 29.3264 98.5806 29.7827 97.1738 29.7827C95.8179 29.7827 94.7384 29.3443 93.9334 28.4673C93.1283 27.5904 92.7258 26.4835 92.7258 25.1493C92.7258 23.7532 93.1399 22.6096 93.9709 21.7205C94.8001 20.8304 95.919 20.3854 97.3259 20.3854C98.6818 20.3854 99.7728 20.8238 100.596 21.7017C101.384 22.5533 101.777 23.6527 101.777 25ZM99.6466 25.0648C99.6466 24.2339 99.4646 23.5213 99.0958 22.9269C98.6654 22.2078 98.05 21.8491 97.2527 21.8491C96.4275 21.8491 95.8006 22.2087 95.3701 22.9269C95.0013 23.5222 94.8193 24.2461 94.8193 25.1024C94.8193 25.9333 95.0013 26.6459 95.3701 27.2393C95.8141 27.9585 96.4342 28.3171 97.2344 28.3171C98.0183 28.3171 98.6336 27.9509 99.0775 27.2205C99.456 26.6149 99.6466 25.8948 99.6466 25.0648Z" fill="white"/>
<path d="M108.45 22.3299C108.247 22.2933 108.03 22.2745 107.803 22.2745C107.081 22.2745 106.522 22.5402 106.129 23.0726C105.787 23.542 105.616 24.1354 105.616 24.8518V29.5791H103.564L103.583 23.4068C103.583 22.3684 103.557 21.4229 103.506 20.5704H105.294L105.369 22.2942H105.426C105.643 21.7018 105.985 21.2248 106.453 20.8671C106.91 20.5451 107.404 20.3845 107.937 20.3845C108.126 20.3845 108.298 20.3977 108.45 20.4211V22.3299Z" fill="white"/>
<path d="M117.632 24.6479C117.632 25.0066 117.608 25.3089 117.557 25.5559H111.398C111.422 26.4459 111.719 27.1266 112.291 27.5961C112.81 28.0157 113.481 28.2261 114.306 28.2261C115.218 28.2261 116.05 28.0843 116.798 27.7998L117.12 29.1894C116.245 29.5612 115.213 29.7461 114.022 29.7461C112.589 29.7461 111.464 29.3349 110.646 28.5134C109.829 27.6918 109.42 26.5886 109.42 25.2047C109.42 23.8461 109.8 22.7148 110.562 21.8125C111.359 20.8492 112.437 20.3676 113.792 20.3676C115.124 20.3676 116.132 20.8492 116.817 21.8125C117.359 22.5777 117.632 23.5241 117.632 24.6479ZM115.674 24.1287C115.688 23.5354 115.554 23.0227 115.275 22.5899C114.92 22.0331 114.374 21.7552 113.639 21.7552C112.968 21.7552 112.422 22.0266 112.005 22.5711C111.663 23.004 111.46 23.5232 111.398 24.1278H115.674V24.1287Z" fill="white"/>
<path d="M47.2333 9.39732C47.2333 10.5024 46.8934 11.3342 46.2145 11.8929C45.5857 12.4083 44.6921 12.6665 43.5346 12.6665C42.9606 12.6665 42.4695 12.6421 42.0583 12.5933V6.5553C42.5947 6.4708 43.1725 6.42761 43.7965 6.42761C44.8991 6.42761 45.7301 6.6614 46.2906 7.12896C46.9184 7.65756 47.2333 8.41336 47.2333 9.39732ZM46.1692 9.42455C46.1692 8.70817 45.9747 8.15892 45.5857 7.77586C45.1967 7.39373 44.6285 7.2022 43.8803 7.2022C43.5625 7.2022 43.2919 7.22285 43.0675 7.26604V11.8563C43.1918 11.875 43.419 11.8835 43.7493 11.8835C44.5216 11.8835 45.1177 11.6741 45.5375 11.2554C45.9574 10.8366 46.1692 10.2264 46.1692 9.42455Z" fill="white"/>
<path d="M52.8752 10.3625C52.8752 11.0432 52.6759 11.6009 52.2772 12.0385C51.8593 12.4882 51.3056 12.7126 50.6142 12.7126C49.9478 12.7126 49.4172 12.4976 49.0214 12.0657C48.6266 11.6347 48.4292 11.0911 48.4292 10.4358C48.4292 9.75039 48.6324 9.188 49.0407 8.75141C49.449 8.31483 49.9979 8.09607 50.6893 8.09607C51.3556 8.09607 51.8911 8.31107 52.2965 8.74202C52.6816 9.16077 52.8752 9.70157 52.8752 10.3625ZM51.8285 10.3945C51.8285 9.98605 51.7379 9.63585 51.5579 9.34385C51.346 8.99083 51.0446 8.81432 50.6527 8.81432C50.2473 8.81432 49.9391 8.99083 49.7273 9.34385C49.5462 9.63585 49.4567 9.99169 49.4567 10.4123C49.4567 10.8207 49.5472 11.1709 49.7273 11.4629C49.9459 11.8159 50.2502 11.9925 50.6431 11.9925C51.0282 11.9925 51.3306 11.8131 51.5482 11.4535C51.7351 11.1559 51.8285 10.8029 51.8285 10.3945Z" fill="white"/>
<path d="M60.4403 8.18628L59.0199 12.6122H58.0955L57.5071 10.6903C57.3579 10.2105 57.2365 9.73357 57.1422 9.26037H57.1239C57.0362 9.74671 56.9149 10.2227 56.7589 10.6903L56.1339 12.6122H55.1989L53.8633 8.18628H54.9004L55.4136 10.2903C55.5379 10.7879 55.6399 11.2621 55.7218 11.7109H55.7401C55.8152 11.3409 55.9394 10.8696 56.1147 10.2997L56.7589 8.18722H57.5813L58.1985 10.2547C58.3478 10.7588 58.4691 11.2442 58.5625 11.7118H58.5905C58.6588 11.2564 58.7619 10.771 58.8986 10.2547L59.4494 8.18722H60.4403V8.18628Z" fill="white"/>
<path d="M65.6721 12.6121H64.6629V10.0771C64.6629 9.29598 64.3586 8.9054 63.7481 8.9054C63.4486 8.9054 63.2069 9.01243 63.0191 9.22744C62.8333 9.44245 62.7389 9.69595 62.7389 9.98606V12.6112H61.7297V9.4509C61.7297 9.0622 61.7172 8.64063 61.6931 8.18433H62.58L62.6272 8.8763H62.6551C62.7726 8.66129 62.9479 8.48384 63.178 8.34207C63.4515 8.17682 63.7577 8.09326 64.0928 8.09326C64.5165 8.09326 64.869 8.22658 65.1492 8.49417C65.4978 8.82184 65.6721 9.311 65.6721 9.96071V12.6121Z" fill="white"/>
<path d="M68.455 12.6121H67.4468V6.1554H68.455V12.6121Z" fill="white"/>
<path d="M74.3967 10.3625C74.3967 11.0432 74.1974 11.6009 73.7987 12.0385C73.3808 12.4882 72.8261 12.7126 72.1357 12.7126C71.4683 12.7126 70.9377 12.4976 70.5429 12.0657C70.1481 11.6347 69.9507 11.0911 69.9507 10.4358C69.9507 9.75039 70.1539 9.188 70.5622 8.75141C70.9705 8.31483 71.5194 8.09607 72.2098 8.09607C72.8771 8.09607 73.4116 8.31107 73.8179 8.74202C74.2031 9.16077 74.3967 9.70157 74.3967 10.3625ZM73.349 10.3945C73.349 9.98605 73.2585 9.63585 73.0784 9.34385C72.8675 8.99083 72.5651 8.81432 72.1742 8.81432C71.7678 8.81432 71.4596 8.99083 71.2488 9.34385C71.0677 9.63585 70.9782 9.99169 70.9782 10.4123C70.9782 10.8207 71.0687 11.1709 71.2488 11.4629C71.4673 11.8159 71.7717 11.9925 72.1645 11.9925C72.5497 11.9925 72.8511 11.8131 73.0688 11.4535C73.2565 11.1559 73.349 10.8029 73.349 10.3945Z" fill="white"/>
<path d="M79.2806 12.6121H78.3745L78.2994 12.1023H78.2714C77.9614 12.5088 77.5194 12.7126 76.9454 12.7126C76.5169 12.7126 76.1703 12.5783 75.9093 12.3117C75.6724 12.0694 75.554 11.7681 75.554 11.4103C75.554 10.8695 75.7851 10.4574 76.2502 10.172C76.7143 9.88653 77.3672 9.74664 78.2079 9.75321V9.67059C78.2079 9.08754 77.894 8.79648 77.2651 8.79648C76.8174 8.79648 76.4226 8.90633 76.0817 9.12415L75.8765 8.4782C76.2983 8.22376 76.8193 8.09607 77.4337 8.09607C78.62 8.09607 79.2151 8.70635 79.2151 9.9269V11.5568C79.2151 11.999 79.2373 12.3511 79.2806 12.6121ZM78.2329 11.0911V10.4086C77.1197 10.3898 76.5631 10.6874 76.5631 11.3005C76.5631 11.5315 76.6267 11.7042 76.7567 11.8197C76.8867 11.9352 77.0523 11.9925 77.2497 11.9925C77.4712 11.9925 77.6782 11.9239 77.867 11.7878C78.0567 11.6507 78.1732 11.477 78.2165 11.2639C78.2271 11.216 78.2329 11.1578 78.2329 11.0911Z" fill="white"/>
<path d="M85.0152 12.6121H84.1197L84.0725 11.9014H84.0445C83.7585 12.4422 83.2713 12.7126 82.5866 12.7126C82.0397 12.7126 81.5842 12.5032 81.2231 12.0845C80.862 11.6657 80.6819 11.1221 80.6819 10.4546C80.6819 9.7382 80.8774 9.15796 81.2703 8.71481C81.6506 8.30169 82.1167 8.09514 82.6714 8.09514C83.2809 8.09514 83.7075 8.29512 83.9502 8.69603H83.9694V6.1554H84.9796V11.4197C84.9796 11.8507 84.9911 12.2478 85.0152 12.6121ZM83.9694 10.7456V10.0077C83.9694 9.87997 83.9598 9.77669 83.9415 9.69782C83.8847 9.46122 83.7624 9.26218 83.5765 9.10163C83.3888 8.94108 83.1625 8.86033 82.9015 8.86033C82.525 8.86033 82.2303 9.00586 82.0137 9.29786C81.7989 9.58985 81.6901 9.96259 81.6901 10.418C81.6901 10.8555 81.7931 11.2104 82.0002 11.4836C82.2188 11.7746 82.5134 11.9202 82.8822 11.9202C83.2135 11.9202 83.4783 11.7991 83.6796 11.5559C83.8741 11.3315 83.9694 11.0611 83.9694 10.7456Z" fill="white"/>
<path d="M93.6462 10.3625C93.6462 11.0432 93.4469 11.6009 93.0482 12.0385C92.6303 12.4882 92.0775 12.7126 91.3852 12.7126C90.7198 12.7126 90.1892 12.4976 89.7924 12.0657C89.3976 11.6347 89.2002 11.0911 89.2002 10.4358C89.2002 9.75039 89.4034 9.188 89.8117 8.75141C90.22 8.31483 90.7689 8.09607 91.4612 8.09607C92.1266 8.09607 92.663 8.31107 93.0675 8.74202C93.4526 9.16077 93.6462 9.70157 93.6462 10.3625ZM92.6004 10.3945C92.6004 9.98605 92.5099 9.63585 92.3298 9.34385C92.117 8.99083 91.8166 8.81432 91.4237 8.81432C91.0192 8.81432 90.7111 8.99083 90.4983 9.34385C90.3172 9.63585 90.2277 9.99169 90.2277 10.4123C90.2277 10.8207 90.3182 11.1709 90.4983 11.4629C90.7169 11.8159 91.0212 11.9925 91.414 11.9925C91.7992 11.9925 92.1026 11.8131 92.3202 11.4535C92.506 11.1559 92.6004 10.8029 92.6004 10.3945Z" fill="white"/>
<path d="M99.0725 12.6121H98.0643V10.0771C98.0643 9.29598 97.76 8.9054 97.1485 8.9054C96.849 8.9054 96.6073 9.01243 96.4205 9.22744C96.2337 9.44245 96.1403 9.69595 96.1403 9.98606V12.6112H95.1301V9.4509C95.1301 9.0622 95.1186 8.64063 95.0945 8.18433H95.9804L96.0276 8.8763H96.0555C96.174 8.66129 96.3492 8.48384 96.5784 8.34207C96.8528 8.17682 97.1581 8.09326 97.4942 8.09326C97.9169 8.09326 98.2694 8.22658 98.5496 8.49417C98.8991 8.82184 99.0725 9.311 99.0725 9.96071V12.6121Z" fill="white"/>
<path d="M105.864 8.92327H104.753V11.0733C104.753 11.6198 104.95 11.893 105.341 11.893C105.522 11.893 105.673 11.878 105.791 11.847L105.817 12.5934C105.618 12.6666 105.356 12.7032 105.033 12.7032C104.635 12.7032 104.324 12.5849 104.1 12.3483C103.875 12.1117 103.763 11.7136 103.763 11.155V8.92327H103.1V8.18624H103.763V7.37504L104.752 7.08398V8.1853H105.863V8.92327H105.864Z" fill="white"/>
<path d="M111.207 12.6121H110.197V10.0959C110.197 9.30255 109.892 8.9054 109.283 8.9054C108.815 8.9054 108.495 9.13543 108.32 9.59548C108.29 9.69219 108.273 9.81049 108.273 9.94945V12.6112H107.264V6.1554H108.273V8.82278H108.292C108.61 8.33737 109.065 8.09514 109.655 8.09514C110.073 8.09514 110.419 8.22846 110.694 8.49605C111.035 8.82935 111.207 9.32508 111.207 9.98043V12.6121Z" fill="white"/>
<path d="M116.718 10.1897C116.718 10.3662 116.704 10.5146 116.68 10.6357H113.654C113.667 11.0732 113.812 11.4065 114.092 11.6375C114.348 11.844 114.678 11.9473 115.083 11.9473C115.531 11.9473 115.939 11.8778 116.307 11.7379L116.465 12.4214C116.034 12.6036 115.528 12.6947 114.941 12.6947C114.238 12.6947 113.685 12.4928 113.284 12.0891C112.881 11.6853 112.682 11.1436 112.682 10.4639C112.682 9.7963 112.868 9.24048 113.243 8.79732C113.634 8.32412 114.162 8.08752 114.83 8.08752C115.482 8.08752 115.978 8.32412 116.313 8.79732C116.584 9.17288 116.718 9.63763 116.718 10.1897ZM115.755 9.93526C115.763 9.64326 115.696 9.39164 115.559 9.17945C115.384 8.90624 115.117 8.76916 114.756 8.76916C114.427 8.76916 114.158 8.90248 113.953 9.17006C113.786 9.38319 113.687 9.63763 113.654 9.93526H115.755Z" fill="white"/>
</svg>
