<svg width="130" height="38" viewBox="0 0 130 38" fill="none" xmlns="http://www.w3.org/2000/svg">
<path d="M125.185 37.6073H4.81481C2.16787 37.6073 0 35.4907 0 32.9064V4.70096C0 2.11664 2.16787 5.4919e-05 4.81481 5.4919e-05H125.185C127.832 5.4919e-05 130 2.11664 130 4.70096V32.9064C130 35.4907 127.832 37.6073 125.185 37.6073Z" fill="black"/>
<path d="M125.185 0.753373C127.414 0.753373 129.228 2.52444 129.228 4.70096V32.9064C129.228 35.0829 127.414 36.854 125.185 36.854H4.81481C2.58556 36.854 0.771574 35.0829 0.771574 32.9064V4.70096C0.771574 2.52444 2.58556 0.753373 4.81481 0.753373H125.185ZM125.185 5.4919e-05H4.81481C2.16787 5.4919e-05 0 2.11664 0 4.70096V32.9064C0 35.4907 2.16787 37.6073 4.81481 37.6073H125.185C127.832 37.6073 130 35.4907 130 32.9064V4.70096C130 2.11664 127.832 5.4919e-05 125.185 5.4919e-05Z" fill="#A6A6A6"/>
<path d="M45.6614 9.6311C45.6614 10.4162 45.4207 11.0449 44.9464 11.5138C44.4011 12.0697 43.691 12.3494 42.8207 12.3494C41.9889 12.3494 41.2787 12.065 40.6961 11.5044C40.1123 10.9356 39.821 10.2375 39.821 9.40194C39.821 8.56635 40.1123 7.86827 40.6961 7.30416C41.2787 6.73887 41.9889 6.45447 42.8207 6.45447C43.2347 6.45447 43.6296 6.53791 44.0063 6.69304C44.3819 6.84934 44.6876 7.06088 44.9091 7.32178L44.406 7.81773C44.0196 7.37232 43.4935 7.15255 42.8207 7.15255C42.214 7.15255 41.688 7.35939 41.2414 7.7766C40.7997 8.19498 40.5782 8.73676 40.5782 9.40194C40.5782 10.0671 40.7997 10.6136 41.2414 11.032C41.688 11.4445 42.214 11.656 42.8207 11.656C43.4647 11.656 44.0063 11.4445 44.4336 11.0273C44.7153 10.7511 44.8754 10.3703 44.9175 9.88378H42.8207V9.2045H45.6181C45.6518 9.3514 45.6614 9.4936 45.6614 9.6311Z" fill="white" stroke="white" stroke-width="0.16" stroke-miterlimit="10"/>
<path d="M50.0994 7.27595H47.4717V9.06229H49.8406V9.74157H47.4717V11.5279H50.0994V12.2201H46.7278V6.58374H50.0994V7.27595Z" fill="white" stroke="white" stroke-width="0.16" stroke-miterlimit="10"/>
<path d="M53.2314 12.2201H52.4875V7.27595H50.8757V6.58374H54.8443V7.27595H53.2314V12.2201Z" fill="white" stroke="white" stroke-width="0.16" stroke-miterlimit="10"/>
<path d="M57.7163 12.2201V6.58374H58.459V12.2201H57.7163Z" fill="white" stroke="white" stroke-width="0.16" stroke-miterlimit="10"/>
<path d="M61.7511 12.2201H61.0133V7.27595H59.3955V6.58374H63.3689V7.27595H61.7511V12.2201Z" fill="white" stroke="white" stroke-width="0.16" stroke-miterlimit="10"/>
<path d="M70.8825 11.495C70.3131 12.065 69.6078 12.3494 68.7664 12.3494C67.9202 12.3494 67.2148 12.065 66.6455 11.495C66.0773 10.9262 65.7944 10.2281 65.7944 9.40194C65.7944 8.57575 66.0773 7.87767 66.6455 7.30886C67.2148 6.73887 67.9202 6.45447 68.7664 6.45447C69.603 6.45447 70.3083 6.73887 70.8777 7.31356C71.4506 7.88707 71.7335 8.58045 71.7335 9.40194C71.7335 10.2281 71.4506 10.9262 70.8825 11.495ZM67.1955 11.0226C67.6241 11.4445 68.1453 11.656 68.7664 11.656C69.3827 11.656 69.9087 11.4445 70.3324 11.0226C70.7597 10.6007 70.9764 10.0589 70.9764 9.40194C70.9764 8.74498 70.7597 8.20321 70.3324 7.7813C69.9087 7.35939 69.3827 7.14785 68.7664 7.14785C68.1453 7.14785 67.6241 7.35939 67.1955 7.7813C66.7682 8.20321 66.5516 8.74498 66.5516 9.40194C66.5516 10.0589 66.7682 10.6007 67.1955 11.0226Z" fill="white" stroke="white" stroke-width="0.16" stroke-miterlimit="10"/>
<path d="M72.7771 12.2201V6.58374H73.6799L76.4869 10.9673H76.5194L76.4869 9.88377V6.58374H77.2296V12.2201H76.4544L73.515 7.62029H73.4825L73.515 8.70855V12.2201H72.7771Z" fill="white" stroke="white" stroke-width="0.16" stroke-miterlimit="10"/>
<path d="M65.6115 20.4513C63.3497 20.4513 61.5021 22.1319 61.5021 24.4506C61.5021 26.7505 63.3497 28.4487 65.6115 28.4487C67.8781 28.4487 69.7258 26.7505 69.7258 24.4506C69.7258 22.1319 67.8781 20.4513 65.6115 20.4513ZM65.6115 26.8739C64.3705 26.8739 63.3028 25.8738 63.3028 24.4506C63.3028 23.0086 64.3705 22.0261 65.6115 22.0261C66.8525 22.0261 67.925 23.0086 67.925 24.4506C67.925 25.8738 66.8525 26.8739 65.6115 26.8739ZM56.6451 20.4513C54.3785 20.4513 52.5357 22.1319 52.5357 24.4506C52.5357 26.7505 54.3785 28.4487 56.6451 28.4487C58.9105 28.4487 60.7545 26.7505 60.7545 24.4506C60.7545 22.1319 58.9105 20.4513 56.6451 20.4513ZM56.6451 26.8739C55.4029 26.8739 54.3316 25.8738 54.3316 24.4506C54.3316 23.0086 55.4029 22.0261 56.6451 22.0261C57.8861 22.0261 58.9538 23.0086 58.9538 24.4506C58.9538 25.8738 57.8861 26.8739 56.6451 26.8739ZM45.9755 21.6771V23.3765H50.1319C50.0103 24.3261 49.6853 25.0241 49.187 25.5107C48.5803 26.0983 47.6354 26.7505 45.9755 26.7505C43.4176 26.7505 41.4146 24.735 41.4146 22.2377C41.4146 19.7403 43.4176 17.7248 45.9755 17.7248C47.3585 17.7248 48.3648 18.2525 49.1075 18.9365L50.3341 17.7389C49.2953 16.7705 47.9134 16.0266 45.9755 16.0266C42.4679 16.0266 39.52 18.8131 39.52 22.2377C39.52 25.6623 42.4679 28.4487 45.9755 28.4487C47.8713 28.4487 49.2953 27.8423 50.4147 26.7047C51.5619 25.5847 51.9194 24.0099 51.9194 22.7383C51.9194 22.3434 51.8857 21.9803 51.8255 21.6771H45.9755ZM89.6049 22.9945C89.2667 22.1002 88.2231 20.4513 86.0973 20.4513C83.9908 20.4513 82.237 22.072 82.237 24.4506C82.237 26.6906 83.9728 28.4487 86.2995 28.4487C88.1809 28.4487 89.2667 27.3288 89.7132 26.6765L88.3169 25.7681C87.8511 26.4332 87.2168 26.8739 86.2995 26.8739C85.3883 26.8739 84.7347 26.4661 84.3158 25.6623L89.7939 23.4493L89.6049 22.9945ZM84.0197 24.3261C83.9728 22.7842 85.2463 21.9944 86.1587 21.9944C86.8737 21.9944 87.4804 22.3434 87.6826 22.8429L84.0197 24.3261ZM79.5672 28.2055H81.368V16.4532H79.5672V28.2055ZM76.6182 21.3422H76.558C76.1535 20.8744 75.382 20.4513 74.4045 20.4513C72.3534 20.4513 70.4781 22.2095 70.4781 24.4636C70.4781 26.7047 72.3534 28.4487 74.4045 28.4487C75.382 28.4487 76.1535 28.0221 76.558 27.5403H76.6182V28.1138C76.6182 29.6428 75.7816 30.4643 74.4322 30.4643C73.332 30.4643 72.6495 29.6886 72.3679 29.0364L70.8019 29.6745C71.2532 30.7346 72.4485 32.0391 74.4322 32.0391C76.5435 32.0391 78.325 30.8262 78.325 27.8752V20.6946H76.6182V21.3422ZM74.5586 26.8739C73.3176 26.8739 72.2788 25.8597 72.2788 24.4636C72.2788 23.0545 73.3176 22.0261 74.5586 22.0261C75.7816 22.0261 76.7458 23.0545 76.7458 24.4636C76.7458 25.8597 75.7816 26.8739 74.5586 26.8739ZM98.0356 16.4532H93.7288V28.2055H95.5247V23.7525H98.0356C100.03 23.7525 101.986 22.3434 101.986 20.1023C101.986 17.8623 100.025 16.4532 98.0356 16.4532ZM98.0826 22.1178H95.5247V18.088H98.0826C99.4235 18.088 100.189 19.175 100.189 20.1023C100.189 21.0119 99.4235 22.1178 98.0826 22.1178ZM109.184 20.429C107.887 20.429 106.537 20.9884 105.982 22.2283L107.576 22.8805C107.919 22.2283 108.55 22.0167 109.217 22.0167C110.149 22.0167 111.093 22.5632 111.108 23.5281V23.6515C110.783 23.4681 110.087 23.1967 109.231 23.1967C107.515 23.1967 105.766 24.1192 105.766 25.8409C105.766 27.4157 107.172 28.4299 108.752 28.4299C109.961 28.4299 110.628 27.8976 111.046 27.2782H111.108V28.1867H112.842V23.6785C112.842 21.5948 111.249 20.429 109.184 20.429ZM108.968 26.8692C108.38 26.8692 107.562 26.5848 107.562 25.8738C107.562 24.9642 108.582 24.6152 109.466 24.6152C110.257 24.6152 110.628 24.7856 111.108 25.01C110.967 26.0983 110.008 26.8692 108.968 26.8692ZM119.162 20.6864L117.097 25.781H117.036L114.902 20.6864H112.965L116.172 27.8059L114.342 31.7676H116.219L121.16 20.6864H119.162ZM102.973 28.2055H104.774V16.4532H102.973V28.2055Z" fill="white"/>
<path d="M10.0486 7.08794C9.76575 7.37704 9.60205 7.82716 9.60205 8.41007V29.2022C9.60205 29.7851 9.76575 30.2352 10.0486 30.5243L10.1184 30.5878L22.052 18.9413V18.6663L10.1184 7.01978L10.0486 7.08794Z" fill="url(#paint0_linear_8550_1419)"/>
<path d="M26.0252 22.8253L22.0518 18.9412V18.6662L26.03 14.7821L26.1191 14.8326L30.8304 17.4498C32.1749 18.1926 32.1749 19.4148 30.8304 20.1623L26.1191 22.7748L26.0252 22.8253Z" fill="url(#paint1_linear_8550_1419)"/>
<path d="M26.1192 22.7748L22.0519 18.8037L10.0486 30.5242C10.4952 30.9826 11.2234 31.0378 12.0515 30.5795L26.1192 22.7748Z" fill="url(#paint2_linear_8550_1419)"/>
<path d="M26.1192 14.8326L12.0515 7.02794C11.2234 6.57431 10.4952 6.62954 10.0486 7.08788L22.0519 18.8037L26.1192 14.8326Z" fill="url(#paint3_linear_8550_1419)"/>
<defs>
<linearGradient id="paint0_linear_8550_1419" x1="20.9924" y1="29.4187" x2="5.21843" y2="13.2625" gradientUnits="userSpaceOnUse">
<stop stop-color="#00A0FF"/>
<stop offset="0.0066" stop-color="#00A1FF"/>
<stop offset="0.2601" stop-color="#00BEFF"/>
<stop offset="0.5122" stop-color="#00D2FF"/>
<stop offset="0.7604" stop-color="#00DFFF"/>
<stop offset="1" stop-color="#00E3FF"/>
</linearGradient>
<linearGradient id="paint1_linear_8550_1419" x1="32.5812" y1="18.8024" x2="9.28046" y2="18.8024" gradientUnits="userSpaceOnUse">
<stop stop-color="#FFE000"/>
<stop offset="0.4087" stop-color="#FFBD00"/>
<stop offset="0.7754" stop-color="#FFA500"/>
<stop offset="1" stop-color="#FF9C00"/>
</linearGradient>
<linearGradient id="paint2_linear_8550_1419" x1="23.9075" y1="16.645" x2="2.51675" y2="-5.26417" gradientUnits="userSpaceOnUse">
<stop stop-color="#FF3A44"/>
<stop offset="1" stop-color="#C31162"/>
</linearGradient>
<linearGradient id="paint3_linear_8550_1419" x1="7.0271" y1="37.4417" x2="16.579" y2="27.6584" gradientUnits="userSpaceOnUse">
<stop stop-color="#32A071"/>
<stop offset="0.0685" stop-color="#2DA771"/>
<stop offset="0.4762" stop-color="#15CF74"/>
<stop offset="0.8009" stop-color="#06E775"/>
<stop offset="1" stop-color="#00F076"/>
</linearGradient>
</defs>
</svg>
